<?xml version="1.0" encoding="UTF-8" standalone="no"?>
<!DOCTYPE svg PUBLIC "-//W3C//DTD SVG 1.1//EN" "http://www.w3.org/Graphics/SVG/1.1/DTD/svg11.dtd">
<svg width="100%" height="100%" viewBox="0 0 500 500" version="1.1" xmlns="http://www.w3.org/2000/svg" xmlns:xlink="http://www.w3.org/1999/xlink" xml:space="preserve" xmlns:serif="http://www.serif.com/" style="fill-rule:evenodd;clip-rule:evenodd;stroke-linejoin:round;stroke-miterlimit:2;">
    <g id="Artboard1" transform="matrix(0.488281,0,0,0.651042,0,0)">
        <rect x="0" y="0" width="1024" height="768" style="fill:none;"/>
        <g transform="matrix(2.048,0,0,1.536,-537.243,-173.295)">
            <g transform="matrix(4.56758,0,0,4.56758,-1405.49,-915.895)">
                <path d="M419.604,297.139C423.636,305.359 429.136,311.973 434.968,316.215C430.357,318.278 425.249,319.426 419.874,319.426C414.43,319.426 409.258,318.248 404.6,316.134C410.312,311.83 415.674,305.257 419.604,297.139Z" style="fill:rgb(41,37,36);"/>
            </g>
            <g transform="matrix(2.49738,1.16455,-1.93034,4.13964,-83.0349,-1231.59)">
                <path d="M456.886,283.313C456.668,292.332 453.218,300.555 447.652,306.869C424.312,307.012 401.851,299.075 391.351,285.49C387.04,279.913 385.234,274.016 385.653,268.262C386.538,256.119 406.804,242.689 422.047,238.401C437.291,234.113 467.716,231.989 486.523,241.532C493.147,244.893 498.691,249.157 502.588,254.198C513.137,267.846 508.688,283.409 493.33,294.109C481.598,292.729 468.701,289.059 456.886,283.313Z" style="fill:rgb(127,45,36);"/>
            </g>
            <g transform="matrix(2.13731,0,0,2.13731,-384.53,-331.802)">
                <path d="M428.087,246.297C444.573,250.037 456.897,264.792 456.897,282.404C456.897,302.837 440.308,319.426 419.874,319.426C399.441,319.426 382.852,302.837 382.852,282.404C382.852,265.148 394.683,250.634 410.669,246.537C407.118,243.187 401.429,240.149 392.472,240.149C390.375,240.149 388.672,238.446 388.672,236.349C388.672,234.251 390.375,232.548 392.472,232.548C407.126,232.548 415.067,238.887 419.248,244.604C423.43,238.887 431.37,232.548 446.024,232.548C448.122,232.548 449.825,234.251 449.825,236.349C449.825,238.446 448.122,240.149 446.024,240.149C437.282,240.149 431.653,243.043 428.087,246.297Z" style="fill:rgb(41,37,36);"/>
            </g>
            <g transform="matrix(4.56758,0,0,4.56758,-1835.03,-1294.4)">
                <g transform="matrix(0.227912,0,0,0.227912,401.357,311.199)">
                    <circle cx="419.874" cy="282.404" r="37.022" style="fill:rgb(41,37,36);"/>
                </g>
                <g transform="matrix(0.227912,0,0,0.227912,434.433,311.199)">
                    <circle cx="419.874" cy="282.404" r="37.022" style="fill:rgb(41,37,36);"/>
                </g>
            </g>
        </g>
    </g>
</svg>
